<svg xmlns="http://www.w3.org/2000/svg" fill="#2B5474" viewBox="0 0 640 480" style="enable-background:new 0 0 640 480" xml:space="preserve"><path d="M211.95 185.91c-2.82 12.5-6.21 23.36-7.6 34.48-4.79 38.47 5.93 74.18 20.81 108.99 1.81 4.24 5.35 6.29 9.89 5.46 4.49-.81 7.07-3.85 7.51-8.48.37-3.89.65-7.79 1-11.68 2.32-26.01 5.05-51.96 12.82-77.05 5.6-18.07 13.62-34.73 28.84-46.89 2.81-2.25 5.94-4.1 9.22-6.35.69 1.79 1.1 2.76 1.44 3.74 10.74 30.77 13 62.62 9.76 94.63-2.23 22-6.9 43.79-11.07 65.55-6.15 32.04-11.58 64.26-22.99 95.05-2.88 7.76 1.4 13.29 9.89 13.35 15.99.11 31.98.04 47.98.03 8.77-.01 11.37-2.12 13.08-10.64 7.64-38.12 14.67-76.35 17.87-115.15 2.2-26.59 3.23-53.24-.52-79.77-2.32-16.44-5.64-32.75-8.51-49.08.92.98 2.22 2.13 3.23 3.49 7.19 9.69 14.81 19.09 21.37 29.2 15.13 23.31 26.41 48.59 36.46 74.43 1.7 4.38 3.92 8 9.31 8.11 5.38.11 7.81-3.37 9.68-7.69 2.53-5.86 5.3-11.62 7.73-17.52 14.18-34.35 12.1-67.27-9.31-98.18-12.75-18.41-30.49-31.03-50.05-41.32-1.45-.76-2.85-1.64-4.27-2.46 12.35-1.06 24.19.37 35.86 3.46 28.4 7.5 53.21 21.41 74.43 41.7 3.59 3.43 7.51 4.91 12.01 2.2 4.21-2.54 5.33-6.47 3.84-11.08-6.74-20.89-15.31-40.92-29.03-58.3-26.27-33.29-60.24-45.44-101.54-35.71-9.71 2.29-18.93 6.6-28.85 10.15v-4.49c-.03-12.96-2.08-25.49-8.41-36.98-12.24-22.2-32.8-33.24-55.77-40.65-2.42-.78-6.96 1.04-8.69 3.15-1.71 2.09-1.79 6.2-1.29 9.2.43 2.61 2.67 4.93 4.11 7.37 9.38 15.86 16.43 32.52 17.9 51.79-2.07-.97-3.63-1.73-5.21-2.45-14.24-6.54-28.7-12.35-44.62-13.28-40.99-2.38-70.39 19.02-96.47 47.1-2.78 3-2.63 6.97-.35 10.42 2.26 3.41 5.57 4.84 9.69 3.86 1.38-.33 2.72-.81 4.09-1.18 24.41-6.55 49.08-8.69 74.03-4.56-9.14 3.32-18.59 5.93-27.32 10.06-31.12 14.72-50.8 40.19-64.69 70.77-.75 1.65-.9 3.87-.53 5.66 1.51 7.22 9.08 9.22 15.45 4.34 9.72-7.45 19.13-15.38 29.39-22 8.8-5.65 18.59-9.76 28.4-14.8z" style="fill:#fff"/><path d="M211.95 185.91c-9.81 5.04-19.6 9.15-28.38 14.82-10.26 6.62-19.67 14.56-29.39 22-6.36 4.88-13.94 2.88-15.45-4.34-.37-1.79-.22-4.02.53-5.66 13.89-30.58 33.56-56.06 64.69-70.77 8.73-4.13 18.18-6.74 27.32-10.06-24.95-4.13-49.62-1.99-74.03 4.56-1.37.37-2.71.85-4.09 1.18-4.12.98-7.43-.45-9.69-3.86-2.28-3.44-2.44-7.42.35-10.42 26.08-28.08 55.48-49.48 96.47-47.1 15.92.93 30.38 6.74 44.62 13.28 1.58.72 3.14 1.48 5.21 2.45-1.47-19.27-8.52-35.93-17.9-51.79-1.44-2.44-3.68-4.76-4.11-7.37-.5-3.01-.42-7.11 1.29-9.2 1.72-2.11 6.26-3.93 8.69-3.15 22.97 7.41 43.53 18.45 55.77 40.65 6.34 11.49 8.38 24.03 8.41 36.98v4.49c9.92-3.55 19.14-7.86 28.85-10.15 41.3-9.73 75.27 2.42 101.54 35.71 13.71 17.38 22.28 37.41 29.03 58.3 1.49 4.61.37 8.54-3.84 11.08-4.5 2.71-8.42 1.23-12.01-2.2-21.22-20.29-46.03-34.2-74.43-41.7-11.67-3.08-23.51-4.52-35.86-3.46 1.42.82 2.82 1.69 4.27 2.46 19.56 10.29 37.29 22.9 50.05 41.32 21.41 30.91 23.49 63.83 9.31 98.18-2.44 5.9-5.2 11.66-7.73 17.52-1.87 4.32-4.3 7.8-9.68 7.69-5.4-.11-7.61-3.72-9.31-8.11-10.04-25.84-21.33-51.12-36.46-74.43-6.55-10.1-14.18-19.51-21.37-29.2-1.01-1.36-2.31-2.5-3.23-3.49 2.87 16.33 6.19 32.64 8.51 49.08 3.75 26.52 2.71 53.17.52 79.77-3.2 38.8-10.23 77.03-17.87 115.15-1.71 8.52-4.31 10.63-13.08 10.64-15.99.01-31.98.08-47.98-.03-8.49-.06-12.77-5.58-9.89-13.35 11.41-30.79 16.84-63.02 22.99-95.05 4.18-21.77 8.84-43.55 11.07-65.55 3.24-32.02.98-63.86-9.76-94.63-.34-.99-.75-1.95-1.44-3.74-3.28 2.24-6.41 4.1-9.22 6.35-15.22 12.16-23.25 28.82-28.84 46.89-7.77 25.09-10.5 51.04-12.82 77.05-.35 3.89-.63 7.79-1 11.68-.44 4.63-3.02 7.67-7.51 8.48-4.54.82-8.07-1.22-9.89-5.46-14.88-34.81-25.61-70.53-20.81-108.99 1.37-11.13 4.77-22 7.58-34.5z"/></svg>