<svg width="298" height="36" fill="none" xmlns="http://www.w3.org/2000/svg"><path d="M7.58 15.12C3.38 15.12.26 12.1.26 8S3.38.88 7.6.88c2.04 0 3.88.68 5.12 2.04l-.94.94C10.64 2.7 9.24 2.2 7.64 2.2 4.26 2.2 1.72 4.68 1.72 8s2.54 5.8 5.92 5.8c1.6 0 3-.5 4.14-1.68l.94.94c-1.24 1.36-3.08 2.06-5.14 2.06Zm9.356-10.64v2.06c.66-1.4 2-2.14 3.94-2.14v1.38c-.12 0-.24-.02-.34-.02-2.2 0-3.54 1.4-3.54 3.88V15h-1.42V4.48h1.36Zm9.41-.08c2.72 0 4.26 1.36 4.26 4.08V15h-1.36v-1.64c-.64 1.08-1.88 1.74-3.62 1.74-2.38 0-3.84-1.24-3.84-3.06 0-1.62 1.04-2.98 4.06-2.98h3.34v-.64c0-1.8-1.02-2.78-2.98-2.78-1.36 0-2.64.48-3.5 1.24l-.64-1.06c1.06-.9 2.62-1.42 4.28-1.42Zm-.5 9.58c1.6 0 2.78-.76 3.34-2.14v-1.72h-3.3c-2.04 0-2.7.8-2.7 1.88 0 1.22.98 1.98 2.66 1.98ZM37.942 1.26c-1.22 0-1.86.68-1.86 1.98v1.24h3.24v1.2h-3.2V15h-1.42V5.68h-1.88v-1.2h1.88v-1.3c0-1.88 1.12-3.12 3.18-3.12.78 0 1.58.22 2.1.66l-.48 1.06c-.4-.34-.96-.52-1.56-.52Zm8.338 12.08.5 1.02c-.56.5-1.4.74-2.22.74-1.98 0-3.08-1.12-3.08-3.06V5.68H39.6v-1.2h1.88v-2.3h1.42v2.3h3.2v1.2h-3.2v6.28c0 1.24.64 1.92 1.82 1.92.58 0 1.16-.18 1.56-.54Zm3.805-11.16c-.58 0-1.04-.46-1.04-1.02 0-.54.46-1 1.04-1 .58 0 1.04.44 1.04.98 0 .58-.44 1.04-1.04 1.04Zm.7 12.82h-1.42V4.48h1.42V15Zm9.31-10.6c2.56 0 4.32 1.48 4.32 4.5V15h-1.42V9.04c0-2.22-1.16-3.36-3.16-3.36-2.26 0-3.68 1.4-3.68 3.8V15h-1.42V4.48h1.36v1.94c.76-1.28 2.18-2.02 4-2.02Zm16.556 2.1V4.48h1.36v9.24c0 3.62-1.78 5.26-5.26 5.26-1.92 0-3.8-.58-4.9-1.62l.72-1.08c1 .9 2.52 1.44 4.14 1.44 2.66 0 3.88-1.22 3.88-3.82v-1.34c-.88 1.34-2.38 2.04-4.1 2.04-3 0-5.28-2.1-5.28-5.12s2.28-5.08 5.28-5.08c1.76 0 3.28.72 4.16 2.1Zm-4.02 6.84c2.32 0 4-1.58 4-3.86s-1.68-3.84-4-3.84c-2.32 0-3.98 1.56-3.98 3.84s1.66 3.86 3.98 3.86Zm19.625-.18L97.656 1h1.5l-6.2 14h-1.46l-6.2-14h1.6l5.36 12.16Zm9.294-10.98c-.58 0-1.04-.46-1.04-1.02 0-.54.46-1 1.04-1 .58 0 1.04.44 1.04.98 0 .58-.44 1.04-1.04 1.04Zm.7 12.82h-1.42V4.48h1.42V15Zm9.371-10.6c3 0 5.24 2.16 5.24 5.34 0 3.18-2.24 5.36-5.24 5.36-1.74 0-3.2-.76-4.06-2.18V15h-1.36V.16h1.42v6.32c.88-1.36 2.32-2.08 4-2.08Zm-.1 9.44c2.22 0 3.92-1.64 3.92-4.1s-1.7-4.1-3.92-4.1c-2.24 0-3.92 1.64-3.92 4.1s1.68 4.1 3.92 4.1Zm9.594-9.36v2.06c.66-1.4 2-2.14 3.94-2.14v1.38c-.12 0-.24-.02-.34-.02-2.2 0-3.54 1.4-3.54 3.88V15h-1.42V4.48h1.36Zm9.41-.08c2.72 0 4.26 1.36 4.26 4.08V15h-1.36v-1.64c-.64 1.08-1.88 1.74-3.62 1.74-2.38 0-3.84-1.24-3.84-3.06 0-1.62 1.04-2.98 4.06-2.98h3.34v-.64c0-1.8-1.02-2.78-2.98-2.78-1.36 0-2.64.48-3.5 1.24l-.64-1.06c1.06-.9 2.62-1.42 4.28-1.42Zm-.5 9.58c1.6 0 2.78-.76 3.34-2.14v-1.72h-3.3c-2.04 0-2.7.8-2.7 1.88 0 1.22.98 1.98 2.66 1.98Zm13.977-9.58c2.56 0 4.32 1.48 4.32 4.5V15h-1.42V9.04c0-2.22-1.16-3.36-3.16-3.36-2.26 0-3.68 1.4-3.68 3.8V15h-1.42V4.48h1.36v1.94c.76-1.28 2.18-2.02 4-2.02Zm13.215 8.94.5 1.02c-.56.5-1.4.74-2.22.74-1.98 0-3.08-1.12-3.08-3.06V5.68h-1.88v-1.2h1.88v-2.3h1.42v2.3h3.2v1.2h-3.2v6.28c0 1.24.64 1.92 1.82 1.92.58 0 1.16-.18 1.56-.54Zm12.48 1.78c-2.1 0-4.16-.74-5.2-1.82l.58-1.14c1 .98 2.78 1.7 4.62 1.7 2.62 0 3.76-1.1 3.76-2.48 0-3.84-8.62-1.48-8.62-6.66 0-2.06 1.6-3.84 5.16-3.84 1.58 0 3.22.46 4.34 1.24l-.5 1.18c-1.2-.78-2.6-1.16-3.84-1.16-2.56 0-3.7 1.14-3.7 2.54 0 3.84 8.62 1.52 8.62 6.62 0 2.06-1.64 3.82-5.22 3.82Zm12.444-.02c-3.08 0-5.36-2.24-5.36-5.36s2.28-5.34 5.36-5.34c3.08 0 5.34 2.22 5.34 5.34 0 3.12-2.26 5.36-5.34 5.36Zm0-1.26c2.24 0 3.9-1.64 3.9-4.1s-1.66-4.1-3.9-4.1-3.92 1.64-3.92 4.1 1.68 4.1 3.92 4.1ZM198.44 10V4.48h1.42V15h-1.36v-1.92c-.74 1.28-2.1 2.02-3.78 2.02-2.68 0-4.44-1.5-4.44-4.52v-6.1h1.42v5.96c0 2.24 1.16 3.38 3.16 3.38 2.2 0 3.58-1.42 3.58-3.82Zm10.757-5.6c2.56 0 4.32 1.48 4.32 4.5V15h-1.42V9.04c0-2.22-1.16-3.36-3.16-3.36-2.26 0-3.68 1.4-3.68 3.8V15h-1.42V4.48h1.36v1.94c.76-1.28 2.18-2.02 4-2.02Zm16.356 2.08V.16h1.42V15h-1.36v-2.08c-.86 1.42-2.32 2.18-4.06 2.18-3 0-5.24-2.18-5.24-5.36s2.24-5.34 5.24-5.34c1.68 0 3.12.72 4 2.08Zm-3.88 7.36c2.22 0 3.9-1.64 3.9-4.1s-1.68-4.1-3.9-4.1c-2.24 0-3.92 1.64-3.92 4.1s1.68 4.1 3.92 4.1Zm12.074 1.26c-1.74 0-3.42-.56-4.28-1.3l.64-1.12c.84.66 2.26 1.18 3.74 1.18 2 0 2.82-.68 2.82-1.72 0-2.74-6.82-.58-6.82-4.74 0-1.72 1.48-3 4.16-3 1.36 0 2.84.38 3.72.98l-.62 1.14c-.92-.64-2.02-.9-3.1-.9-1.9 0-2.74.74-2.74 1.74 0 2.84 6.82.7 6.82 4.74 0 1.82-1.6 3-4.34 3Zm16.36.02c-2.1 0-4.16-.74-5.2-1.82l.58-1.14c1 .98 2.78 1.7 4.62 1.7 2.62 0 3.76-1.1 3.76-2.48 0-3.84-8.62-1.48-8.62-6.66 0-2.06 1.6-3.84 5.16-3.84 1.58 0 3.22.46 4.34 1.24l-.5 1.18c-1.2-.78-2.6-1.16-3.84-1.16-2.56 0-3.7 1.14-3.7 2.54 0 3.84 8.62 1.52 8.62 6.62 0 2.06-1.64 3.82-5.22 3.82Zm8.864-12.94c-.58 0-1.04-.46-1.04-1.02 0-.54.46-1 1.04-1 .58 0 1.04.44 1.04.98 0 .58-.44 1.04-1.04 1.04Zm.7 12.82h-1.42V4.48h1.42V15Zm9.312-10.6c2.56 0 4.32 1.48 4.32 4.5V15h-1.42V9.04c0-2.22-1.16-3.36-3.16-3.36-2.26 0-3.68 1.4-3.68 3.8V15h-1.42V4.48h1.36v1.94c.76-1.28 2.18-2.02 4-2.02Zm12.535 10.7c-3.14 0-5.42-2.22-5.42-5.36s2.28-5.34 5.42-5.34c1.78 0 3.28.7 4.12 2.08l-1.06.72c-.72-1.06-1.84-1.56-3.06-1.56-2.3 0-3.98 1.64-3.98 4.1 0 2.48 1.68 4.1 3.98 4.1 1.22 0 2.34-.48 3.06-1.54l1.06.72c-.84 1.36-2.34 2.08-4.12 2.08Zm15.913-5.36c0 .12-.02.28-.02.44h-8.8c.16 2.2 1.84 3.66 4.14 3.66 1.28 0 2.42-.46 3.22-1.38l.8.92c-.94 1.12-2.4 1.72-4.06 1.72-3.28 0-5.52-2.24-5.52-5.36s2.18-5.34 5.14-5.34c2.96 0 5.1 2.18 5.1 5.34Zm-5.1-4.12c-2.04 0-3.54 1.44-3.72 3.5h7.46c-.18-2.06-1.68-3.5-3.74-3.5ZM134.879 29.04l-4.76 4.68h7.7V35h-9.82v-1.02l5.82-5.7c1.58-1.56 1.88-2.5 1.88-3.46 0-1.62-1.14-2.62-3.28-2.62-1.64 0-2.9.5-3.82 1.56l-1.02-.88c1.08-1.28 2.82-2 4.96-2 2.84 0 4.64 1.44 4.64 3.78 0 1.34-.42 2.54-2.3 4.38Zm10.288 6.08c-3.24 0-5.58-2.66-5.58-7.12s2.34-7.12 5.58-7.12 5.6 2.66 5.6 7.12-2.36 7.12-5.6 7.12Zm0-1.32c2.44 0 4.12-2.06 4.12-5.8 0-3.74-1.68-5.8-4.12-5.8-2.44 0-4.12 2.06-4.12 5.8 0 3.74 1.68 5.8 4.12 5.8Zm6.802-11.52V21h4.74v14h-1.44V22.28h-3.3Zm9.967 4.46h1.8c4.22 0 5.82 1.66 5.82 4.14 0 2.38-1.66 4.24-5.08 4.24-2.02 0-3.94-.7-5.02-1.8l.7-1.14c.9.94 2.5 1.62 4.3 1.62 2.38 0 3.64-1.16 3.64-2.86 0-1.8-1.12-2.92-4.68-2.92h-2.98l.72-7.02h7.66v1.28h-6.4l-.48 4.46Z" fill="#2B5474"/></svg>