<svg width="1038" height="58" fill="none" xmlns="http://www.w3.org/2000/svg"><path d="M22.86 45.86C10.26 45.86.9 36.8.9 24.5c0-12.3 9.36-21.36 22.02-21.36 6.12 0 11.64 2.04 15.36 6.12l-2.82 2.82C32.04 8.6 27.84 7.1 23.04 7.1 12.9 7.1 5.28 14.54 5.28 24.5c0 9.96 7.62 17.4 17.76 17.4 4.8 0 9-1.5 12.42-5.04l2.82 2.82c-3.72 4.08-9.24 6.18-15.42 6.18Zm28.064-31.92v6.18c1.98-4.2 6-6.42 11.82-6.42v4.14c-.36 0-.72-.06-1.02-.06-6.6 0-10.62 4.2-10.62 11.64V45.5h-4.26V13.94h4.08Zm28.23-.24c8.16 0 12.78 4.08 12.78 12.24V45.5h-4.08v-4.92c-1.92 3.24-5.64 5.22-10.86 5.22-7.14 0-11.52-3.72-11.52-9.18 0-4.86 3.12-8.94 12.18-8.94h10.02v-1.92c0-5.4-3.06-8.34-8.94-8.34-4.08 0-7.92 1.44-10.5 3.72l-1.92-3.18c3.18-2.7 7.86-4.26 12.84-4.26Zm-1.5 28.74c4.8 0 8.34-2.28 10.02-6.42v-5.16h-9.9c-6.12 0-8.1 2.4-8.1 5.64 0 3.66 2.94 5.94 7.98 5.94Zm36.29-38.16c-3.66 0-5.58 2.04-5.58 5.94v3.72h9.72v3.6h-9.6V45.5h-4.26V17.54h-5.64v-3.6h5.64v-3.9c0-5.64 3.36-9.36 9.54-9.36 2.34 0 4.74.66 6.3 1.98l-1.44 3.18c-1.2-1.02-2.88-1.56-4.68-1.56Zm25.012 36.24 1.5 3.06c-1.68 1.5-4.2 2.22-6.66 2.22-5.94 0-9.24-3.36-9.24-9.18V17.54h-5.64v-3.6h5.64v-6.9h4.26v6.9h9.6v3.6h-9.6v18.84c0 3.72 1.92 5.76 5.46 5.76 1.74 0 3.48-.54 4.68-1.62Zm11.415-33.48c-1.74 0-3.12-1.38-3.12-3.06 0-1.62 1.38-3 3.12-3 1.74 0 3.12 1.32 3.12 2.94 0 1.74-1.32 3.12-3.12 3.12Zm2.1 38.46h-4.26V13.94h4.26V45.5Zm27.934-31.8c7.68 0 12.96 4.44 12.96 13.5v18.3h-4.26V27.62c0-6.66-3.48-10.08-9.48-10.08-6.78 0-11.04 4.2-11.04 11.4V45.5h-4.26V13.94h4.08v5.82c2.28-3.84 6.54-6.06 12-6.06ZM230.07 20v-6.06h4.08v27.72c0 10.86-5.34 15.78-15.78 15.78-5.76 0-11.4-1.74-14.7-4.86l2.16-3.24c3 2.7 7.56 4.32 12.42 4.32 7.98 0 11.64-3.66 11.64-11.46v-4.02c-2.64 4.02-7.14 6.12-12.3 6.12-9 0-15.84-6.3-15.84-15.36 0-9.06 6.84-15.24 15.84-15.24 5.28 0 9.84 2.16 12.48 6.3Zm-12.06 20.52c6.96 0 12-4.74 12-11.58s-5.04-11.52-12-11.52-11.94 4.68-11.94 11.52 4.98 11.58 11.94 11.58Zm58.876-.54 16.2-36.48h4.5l-18.6 42h-4.38l-18.6-42h4.8l16.08 36.48Zm27.88-32.94c-1.74 0-3.12-1.38-3.12-3.06 0-1.62 1.38-3 3.12-3 1.74 0 3.12 1.32 3.12 2.94 0 1.74-1.32 3.12-3.12 3.12Zm2.1 38.46h-4.26V13.94h4.26V45.5Zm28.113-31.8c9 0 15.72 6.48 15.72 16.02s-6.72 16.08-15.72 16.08c-5.22 0-9.6-2.28-12.18-6.54v6.24h-4.08V.98h4.26v18.96c2.64-4.08 6.96-6.24 12-6.24Zm-.3 28.32c6.66 0 11.76-4.92 11.76-12.3 0-7.38-5.1-12.3-11.76-12.3-6.72 0-11.76 4.92-11.76 12.3 0 7.38 5.04 12.3 11.76 12.3Zm28.784-28.08v6.18c1.98-4.2 6-6.42 11.82-6.42v4.14c-.36 0-.72-.06-1.02-.06-6.6 0-10.62 4.2-10.62 11.64V45.5h-4.26V13.94h4.08Zm28.23-.24c8.16 0 12.78 4.08 12.78 12.24V45.5h-4.08v-4.92c-1.92 3.24-5.64 5.22-10.86 5.22-7.14 0-11.52-3.72-11.52-9.18 0-4.86 3.12-8.94 12.18-8.94h10.02v-1.92c0-5.4-3.06-8.34-8.94-8.34-4.08 0-7.92 1.44-10.5 3.72l-1.92-3.18c3.18-2.7 7.86-4.26 12.84-4.26Zm-1.5 28.74c4.8 0 8.34-2.28 10.02-6.42v-5.16h-9.9c-6.12 0-8.1 2.4-8.1 5.64 0 3.66 2.94 5.94 7.98 5.94Zm41.931-28.74c7.68 0 12.96 4.44 12.96 13.5v18.3h-4.26V27.62c0-6.66-3.48-10.08-9.48-10.08-6.78 0-11.04 4.2-11.04 11.4V45.5h-4.26V13.94h4.08v5.82c2.28-3.84 6.54-6.06 12-6.06Zm39.645 26.82 1.5 3.06c-1.68 1.5-4.2 2.22-6.66 2.22-5.94 0-9.24-3.36-9.24-9.18V17.54h-5.64v-3.6h5.64v-6.9h4.26v6.9h9.6v3.6h-9.6v18.84c0 3.72 1.92 5.76 5.46 5.76 1.74 0 3.48-.54 4.68-1.62Zm37.438 5.34c-6.3 0-12.48-2.22-15.6-5.46l1.74-3.42c3 2.94 8.34 5.1 13.86 5.1 7.86 0 11.28-3.3 11.28-7.44 0-11.52-25.86-4.44-25.86-19.98 0-6.18 4.8-11.52 15.48-11.52 4.74 0 9.66 1.38 13.02 3.72l-1.5 3.54c-3.6-2.34-7.8-3.48-11.52-3.48-7.68 0-11.1 3.42-11.1 7.62 0 11.52 25.86 4.56 25.86 19.86 0 6.18-4.92 11.46-15.66 11.46Zm37.334-.06c-9.24 0-16.08-6.72-16.08-16.08s6.84-16.02 16.08-16.02c9.24 0 16.02 6.66 16.02 16.02s-6.78 16.08-16.02 16.08Zm0-3.78c6.72 0 11.7-4.92 11.7-12.3 0-7.38-4.98-12.3-11.7-12.3-6.72 0-11.76 4.92-11.76 12.3 0 7.38 5.04 12.3 11.76 12.3Zm48.897-11.52V13.94h4.26V45.5h-4.08v-5.76c-2.22 3.84-6.3 6.06-11.34 6.06-8.04 0-13.32-4.5-13.32-13.56v-18.3h4.26v17.88c0 6.72 3.48 10.14 9.48 10.14 6.6 0 10.74-4.26 10.74-11.46Zm32.271-16.8c7.68 0 12.96 4.44 12.96 13.5v18.3h-4.26V27.62c0-6.66-3.48-10.08-9.48-10.08-6.78 0-11.04 4.2-11.04 11.4V45.5h-4.26V13.94h4.08v5.82c2.28-3.84 6.54-6.06 12-6.06Zm49.066 6.24V.98h4.26V45.5h-4.08v-6.24c-2.58 4.26-6.96 6.54-12.18 6.54-9 0-15.72-6.54-15.72-16.08s6.72-16.02 15.72-16.02c5.04 0 9.36 2.16 12 6.24Zm-11.64 22.08c6.66 0 11.7-4.92 11.7-12.3 0-7.38-5.04-12.3-11.7-12.3-6.72 0-11.76 4.92-11.76 12.3 0 7.38 5.04 12.3 11.76 12.3Zm36.224 3.78c-5.22 0-10.26-1.68-12.84-3.9l1.92-3.36c2.52 1.98 6.78 3.54 11.22 3.54 6 0 8.46-2.04 8.46-5.16 0-8.22-20.46-1.74-20.46-14.22 0-5.16 4.44-9 12.48-9 4.08 0 8.52 1.14 11.16 2.94l-1.86 3.42c-2.76-1.92-6.06-2.7-9.3-2.7-5.7 0-8.22 2.22-8.22 5.22 0 8.52 20.46 2.1 20.46 14.22 0 5.46-4.8 9-13.02 9Zm49.079.06c-6.3 0-12.48-2.22-15.6-5.46l1.74-3.42c3 2.94 8.34 5.1 13.86 5.1 7.86 0 11.28-3.3 11.28-7.44 0-11.52-25.86-4.44-25.86-19.98 0-6.18 4.8-11.52 15.48-11.52 4.74 0 9.66 1.38 13.02 3.72l-1.5 3.54c-3.6-2.34-7.8-3.48-11.52-3.48-7.68 0-11.1 3.42-11.1 7.62 0 11.52 25.86 4.56 25.86 19.86 0 6.18-4.92 11.46-15.66 11.46Zm26.594-38.82c-1.74 0-3.12-1.38-3.12-3.06 0-1.62 1.38-3 3.12-3 1.74 0 3.12 1.32 3.12 2.94 0 1.74-1.32 3.12-3.12 3.12Zm2.1 38.46h-4.26V13.94h4.26V45.5Zm27.933-31.8c7.68 0 12.96 4.44 12.96 13.5v18.3h-4.26V27.62c0-6.66-3.48-10.08-9.48-10.08-6.78 0-11.04 4.2-11.04 11.4V45.5h-4.26V13.94h4.08v5.82c2.28-3.84 6.54-6.06 12-6.06Zm37.605 32.1c-9.42 0-16.26-6.66-16.26-16.08 0-9.42 6.84-16.02 16.26-16.02 5.34 0 9.84 2.1 12.36 6.24l-3.18 2.16c-2.16-3.18-5.52-4.68-9.18-4.68-6.9 0-11.94 4.92-11.94 12.3 0 7.44 5.04 12.3 11.94 12.3 3.66 0 7.02-1.44 9.18-4.62l3.18 2.16c-2.52 4.08-7.02 6.24-12.36 6.24Zm47.742-16.08c0 .36-.06.84-.06 1.32h-26.4c.48 6.6 5.52 10.98 12.42 10.98 3.84 0 7.26-1.38 9.66-4.14l2.4 2.76c-2.82 3.36-7.2 5.16-12.18 5.16-9.84 0-16.56-6.72-16.56-16.08s6.54-16.02 15.42-16.02c8.88 0 15.3 6.54 15.3 16.02Zm-15.3-12.36c-6.12 0-10.62 4.32-11.16 10.5h22.38c-.54-6.18-5.04-10.5-11.22-10.5Zm56.714 10.26-14.28 14.04h23.1v3.84h-29.46v-3.06l17.46-17.1c4.74-4.68 5.64-7.5 5.64-10.38 0-4.86-3.42-7.86-9.84-7.86-4.92 0-8.7 1.5-11.46 4.68l-3.06-2.64c3.24-3.84 8.46-6 14.88-6 8.52 0 13.92 4.32 13.92 11.34 0 4.02-1.26 7.62-6.9 13.14Zm30.864 18.24c-9.72 0-16.74-7.98-16.74-21.36 0-13.38 7.02-21.36 16.74-21.36 9.72 0 16.8 7.98 16.8 21.36 0 13.38-7.08 21.36-16.8 21.36Zm0-3.96c7.32 0 12.36-6.18 12.36-17.4 0-11.22-5.04-17.4-12.36-17.4-7.32 0-12.36 6.18-12.36 17.4 0 11.22 5.04 17.4 12.36 17.4Zm20.407-34.56V3.5h14.22v42h-4.32V7.34h-9.9ZM1015 20.72h5.4c12.66 0 17.46 4.98 17.46 12.42 0 7.14-4.98 12.72-15.24 12.72-6.06 0-11.82-2.1-15.06-5.4l2.1-3.42c2.7 2.82 7.5 4.86 12.9 4.86 7.14 0 10.92-3.48 10.92-8.58 0-5.4-3.36-8.76-14.04-8.76h-8.94l2.16-21.06h22.98v3.84h-19.2L1015 20.72Z" fill="#2B5474"/></svg>