<svg width="1002" height="69" fill="none" xmlns="http://www.w3.org/2000/svg"><path d="m73.8 4.5.18 63H57.6l-.18-33.39-16.2 27.18H33.3L17.19 35.01V67.5H.72v-63h14.67l22.14 36.36L59.13 4.5H73.8Zm61.839 38.7c0 1.26-.18 2.88-.27 4.23h-35.46c1.44 4.95 5.67 7.83 11.97 7.83 4.77 0 7.92-1.35 11.25-4.23l9 9.36c-4.68 5.22-11.52 7.92-20.79 7.92-17.37 0-28.62-10.71-28.62-25.29 0-14.67 11.43-25.11 26.82-25.11 14.4 0 26.1 9.18 26.1 25.29Zm-26.01-13.14c-5.31 0-9 3.24-9.99 8.37h19.98c-.9-5.13-4.68-8.37-9.99-8.37Zm83.754 13.14c0 1.26-.18 2.88-.27 4.23h-35.46c1.44 4.95 5.67 7.83 11.97 7.83 4.77 0 7.92-1.35 11.25-4.23l9 9.36c-4.68 5.22-11.52 7.92-20.79 7.92-17.37 0-28.62-10.71-28.62-25.29 0-14.67 11.43-25.11 26.82-25.11 14.4 0 26.1 9.18 26.1 25.29Zm-26.01-13.14c-5.31 0-9 3.24-9.99 8.37h19.98c-.9-5.13-4.68-8.37-9.99-8.37Zm63.324 23.49 4.23 11.97c-2.97 1.89-7.38 2.79-11.88 2.79-12.51 0-19.8-6.12-19.8-18.63V33.3h-7.11V20.52h7.11V7.83h17.1v12.69h11.16V33.3h-11.16v16.2c0 3.6 2.07 5.58 5.13 5.58 1.89 0 3.78-.54 5.22-1.53Zm86.246-18.9c7.11 2.52 11.52 7.92 11.52 15.57 0 10.89-9 17.28-25.92 17.28h-34.02v-63h32.22c16.56 0 24.66 6.75 24.66 16.47 0 6.03-3.06 10.89-8.46 13.68Zm-18.54-17.28h-12.24v12.15h12.24c5.94 0 9-2.07 9-6.12 0-3.96-3.06-6.03-9-6.03Zm-12.24 37.26h14.94c6.12 0 9.36-2.07 9.36-6.39s-3.24-6.39-9.36-6.39h-14.94v12.78Zm100.58-11.43c0 1.26-.18 2.88-.27 4.23h-35.46c1.44 4.95 5.67 7.83 11.97 7.83 4.77 0 7.92-1.35 11.25-4.23l9 9.36c-4.68 5.22-11.52 7.92-20.79 7.92-17.37 0-28.62-10.71-28.62-25.29 0-14.67 11.43-25.11 26.82-25.11 14.4 0 26.1 9.18 26.1 25.29Zm-26.01-13.14c-5.31 0-9 3.24-9.99 8.37h19.98c-.9-5.13-4.68-8.37-9.99-8.37Zm53.365-12.15c15.84 0 24.93 7.02 24.93 22.5V67.5h-15.93v-6.3c-2.43 4.68-7.29 7.11-14.4 7.11-11.7 0-18.18-6.57-18.18-15.03 0-9 6.57-14.58 21.69-14.58h9.72c-.27-4.95-3.6-7.74-10.35-7.74-4.68 0-9.9 1.62-13.23 4.23l-5.76-11.61c5.58-3.69 13.86-5.67 21.51-5.67Zm-.63 39.6c3.78 0 7.11-1.8 8.46-5.67v-4.23h-7.38c-5.49 0-7.47 1.98-7.47 4.95 0 2.88 2.34 4.95 6.39 4.95Zm61.899 10.8c-16.38 0-27.99-10.44-27.99-25.29 0-14.67 11.61-25.11 27.99-25.11 11.07 0 19.53 4.95 22.86 13.41l-13.23 6.75c-2.34-4.59-5.76-6.57-9.72-6.57-5.94 0-10.62 4.14-10.62 11.52 0 7.56 4.68 11.7 10.62 11.7 3.96 0 7.38-1.98 9.72-6.57l13.23 6.75c-3.33 8.46-11.79 13.41-22.86 13.41Zm60.893-50.4c11.43 0 20.16 6.57 20.16 21.69v27.9h-17.1V42.39c0-7.02-3.06-9.99-8.01-9.99-5.49 0-9.72 3.42-9.72 11.52V67.5h-17.1V.72h17.1v22.5c3.78-3.51 8.91-5.31 14.67-5.31Zm126.477 27.18 13.23-40.59h17.01l-20.43 63h-19.08l-12.06-38.34-12.6 38.34h-19.08l-20.43-63h18.36l12.69 40.23 13.32-40.23h16.38l12.69 40.59Zm82.072-1.89c0 1.26-.18 2.88-.27 4.23h-35.46c1.44 4.95 5.67 7.83 11.97 7.83 4.77 0 7.92-1.35 11.25-4.23l9 9.36c-4.68 5.22-11.52 7.92-20.79 7.92-17.37 0-28.62-10.71-28.62-25.29 0-14.67 11.43-25.11 26.82-25.11 14.4 0 26.1 9.18 26.1 25.29Zm-26.01-13.14c-5.31 0-9 3.24-9.99 8.37h19.98c-.9-5.13-4.68-8.37-9.99-8.37Zm53.366-12.15c15.84 0 24.93 7.02 24.93 22.5V67.5h-15.93v-6.3c-2.43 4.68-7.29 7.11-14.4 7.11-11.7 0-18.18-6.57-18.18-15.03 0-9 6.57-14.58 21.69-14.58h9.72c-.27-4.95-3.6-7.74-10.35-7.74-4.68 0-9.9 1.62-13.23 4.23l-5.76-11.61c5.58-3.69 13.86-5.67 21.51-5.67Zm-.63 39.6c3.78 0 7.11-1.8 8.46-5.67v-4.23h-7.38c-5.49 0-7.47 1.98-7.47 4.95 0 2.88 2.34 4.95 6.39 4.95Zm65.783-3.96 4.23 11.97c-2.97 1.89-7.38 2.79-11.88 2.79-12.51 0-19.8-6.12-19.8-18.63V33.3h-7.11V20.52h7.11V7.83h17.1v12.69h11.16V33.3h-11.16v16.2c0 3.6 2.07 5.58 5.13 5.58 1.89 0 3.78-.54 5.22-1.53Zm42.594-35.64c11.43 0 20.16 6.57 20.16 21.69v27.9h-17.1V42.39c0-7.02-3.06-9.99-8.01-9.99-5.49 0-9.72 3.42-9.72 11.52V67.5h-17.1V.72h17.1v22.5c3.78-3.51 8.91-5.31 14.67-5.31Zm81.372 25.29c0 1.26-.18 2.88-.27 4.23h-35.46c1.44 4.95 5.67 7.83 11.97 7.83 4.77 0 7.92-1.35 11.25-4.23l9 9.36c-4.68 5.22-11.52 7.92-20.79 7.92-17.37 0-28.62-10.71-28.62-25.29 0-14.67 11.43-25.11 26.82-25.11 14.4 0 26.1 9.18 26.1 25.29Zm-26.01-13.14c-5.31 0-9 3.24-9.99 8.37h19.98c-.9-5.13-4.68-8.37-9.99-8.37Zm50.184-11.34v5.85c3.51-4.41 9.18-6.66 16.382-6.66V33.3c-1.53-.18-2.612-.27-3.872-.27-6.93 0-11.7 3.51-11.7 12.06V67.5h-17.1V18.72h16.29Z" fill="#2B5474"/></svg>